:SAMPLES-PER-SECOND 30
:FULLY-SPECIFIED
:DEGREES
98
root  -4.40628 38.3535 2.26654 -106.409 -83.2155 99.0363
RightUpLeg  -20.6171 -4.67855 -9.41226
RightLeg  8.46637 5.34423 -0.38968
RightFoot  -2.30019 -0.482738 5.82507
RightToes  -1.14419e-005 0.000421891 0.000989203
Spine  6.63985 0.67387 -0.831402
Spine1  9.15288 2.13899 -5.73235
HEad  -17.7414 -1.89653 -2.66004
LeftShoulder1  -0.0734886 3.69685 -31.6739
LeftArm  15.0874 -9.29588 -40.3657
LeftForeArm  29.9071 -39.0454 -7.1996
LeftHand  -0.0248545 5.22584 -1.95655
RightShoulder  -0.689143 -5.4122 29.4037
RightArm  13.6984 3.10482 50.048
RightForeArm  6.3825 32.4628 6.81252
RightHand  -0.637713 8.20893 -5.79516
LeftUpLeg  7.21153 0.970023 -10.1322
LeftLeg  19.8738 1.39206 1.09792
LeftFoot  -19.3068 0.581921 6.67924
LeftToes  8.61288e-010 -5.99147e-011 2.1039e-011
99
root  -6.0099 38.136 2.24349 -101.41 -83.5929 93.542
RightUpLeg  -20.3245 -8.17639 -7.984
RightLeg  1.56012 9.52564 -1.82791
RightFoot  -3.89198 -0.290573 4.15809
RightToes  0.000110595 -0.00407835 -0.00956229
Spine  6.08545 0.345887 0.287929
Spine1  10.4815 1.80986 -5.25088
HEad  -19.065 -1.6965 -3.02507
LeftShoulder1  0.0733461 3.30258 -30.158
LeftArm  12.2956 -13.8201 -41.3865
LeftForeArm  33.5216 -42.4951 -8.01795
LeftHand  -0.0349232 5.85795 -1.0038
RightShoulder  -0.563386 -5.12743 27.9272
RightArm  10.9722 7.40511 49.6194
RightForeArm  7.11355 35.041 7.46438
RightHand  -0.795096 8.70956 -6.91952
LeftUpLeg  10.7167 0.53706 -9.91977
LeftLeg  19.5262 1.34752 1.02203
LeftFoot  -21.131 0.688915 6.55152
LeftToes  8.61288e-010 -5.99147e-011 2.1039e-011
100
root  -7.66852 37.7127 2.18147 -103.964 -83.9819 95.56
RightUpLeg  -21.1573 -7.68638 -7.75351
RightLeg  3.27389 7.90868 -1.27002
RightFoot  -5.01902 -0.359151 5.75234
RightToes  0.000423314 -0.01561 -0.0366006
Spine  6.57148 0.281381 1.32292
Spine1  10.1191 1.58301 -4.55161
HEad  -19.194 -1.4881 -4.24512
LeftShoulder1  0.135914 3.11586 -28.9102
LeftArm  9.33069 -18.1151 -41.7842
LeftForeArm  37.1969 -45.8363 -8.9106
LeftHand  -0.00872651 4.22665 -1.71993
RightShoulder  -0.448249 -4.84845 26.4294
RightArm  8.16886 13.0202 48.5633
RightForeArm  8.56147 36.9133 7.91322
RightHand  -0.75597 9.33523 -6.33129
LeftUpLeg  13.1415 0.715225 -9.42878
LeftLeg  21.7795 1.71601 1.08406
LeftFoot  -23.7531 0.768114 5.7702
LeftToes  8.61288e-010 -5.99147e-011 2.1039e-011
101
root  -9.33157 37.2745 2.1334 -112.357 -84.8637 103.565
RightUpLeg  -22.7647 -5.54922 -7.07477
RightLeg  10.5201 4.06223 -0.333621
RightFoot  -2.42887 -0.25496 3.49404
RightToes  -3.43238e-005 0.00126567 0.0029676
Spine  7.05741 0.0705336 3.85611
Spine1  9.97884 1.49079 -4.49529
HEad  -19.8189 -0.714029 -6.09153
LeftShoulder1  0.179018 2.97554 -27.6367
LeftArm  5.26677 -21.997 -41.571
LeftForeArm  40.0727 -49.9593 -10.2857
LeftHand  -0.0119714 3.81751 -0.729666
RightShoulder  -0.331866 -4.5491 24.6694
RightArm  4.139 19.312 47.8627
RightForeArm  11.6263 38.8271 8.29313
RightHand  -0.764932 9.26278 -6.43367
LeftUpLeg  13.9095 2.31474 -7.62243
LeftLeg  27.1503 0.48997 0.619815
LeftFoot  -25.5026 0.543436 3.20932
LeftToes  8.61288e-010 -5.99147e-011 2.1039e-011
102
root  -10.8355 36.8687 2.11346 -127.877 -86.4707 118.407
RightUpLeg  -24.5024 -3.95058 -5.78413
RightLeg  17.9257 3.2432 0.713638
RightFoot  4.26358 -0.189682 1.46358
RightToes  -9.31324e-010 0 -3.6325e-017
Spine  9.01922 -0.529232 8.01026
Spine1  9.49069 1.39592 -4.52403
HEad  -20.6628 -0.310158 -7.11007
LeftShoulder1  0.195852 2.89514 -26.0745
LeftArm  0.803236 -25.6953 -41.1513
LeftForeArm  42.8089 -53.9691 -11.8919
LeftHand  -0.0261042 3.45404 0.513157
RightShoulder  -0.246899 -4.31983 22.9982
RightArm  -0.564015 25.238 47.1253
RightForeArm  14.1061 41.3509 8.9432
RightHand  -0.812772 9.75923 -6.60903
LeftUpLeg  12.2876 3.96961 -4.39041
LeftLeg  37.2736 -1.35955 -0.885549
LeftFoot  -24.2423 -0.105447 -2.54021
LeftToes  8.61288e-010 -5.99147e-011 2.1039e-011
103
root  -12.2579 36.1695 2.0344 -164.304 -87.8108 154.386
RightUpLeg  -27.063 -2.53245 -4.06596
RightLeg  27.1394 3.2291 1.62905
RightFoot  4.59271 -0.419369 3.22326
RightToes  -9.31324e-010 0 -3.6325e-017
Spine  12.7571 -1.15764 12.011
Spine1  6.90479 1.59255 -4.91379
HEad  -22.1854 -0.963587 -8.00785
LeftShoulder1  0.324709 2.42841 -23.9394
LeftArm  -3.93337 -28.4607 -41.3689
LeftForeArm  46.7251 -58.2857 -13.9763
LeftHand  -0.0486118 3.27297 1.72284
RightShoulder  -0.159134 -4.04734 21.3646
RightArm  -6.63458 29.3708 45.5475
RightForeArm  16.9331 46.0226 10.4269
RightHand  -0.957705 9.76706 -7.69106
LeftUpLeg  5.71613 6.38527 0.0478473
LeftLeg  54.2722 -2.18115 -2.4939
LeftFoot  -15.0335 -0.198459 -8.56722
LeftToes  8.61288e-010 -5.99147e-011 2.1039e-011
104
root  -13.5131 35.4724 1.88846 138.5 -87.4159 -148.461
RightUpLeg  -29.8488 -4.2153 -1.26116
RightLeg  35.8368 4.30918 3.06499
RightFoot  2.65289 0.0146622 -0.019496
RightToes  -9.31324e-010 0 -3.6325e-017
Spine  16.9256 -1.33864 14.2791
Spine1  4.15889 1.77675 -3.08939
HEad  -24.5466 -1.45065 -8.49541
LeftShoulder1  0.454535 1.9104 -22.1294
LeftArm  -8.1931 -30.8581 -40.9453
LeftForeArm  51.7707 -64.1837 -18.0827
LeftHand  -0.0795024 2.483 2.8735
RightShoulder  0.00488634 -3.46044 19.2091
RightArm  -12.8459 32.7717 43.0941
RightForeArm  19.4934 52.1336 12.9319
RightHand  -1.14206 10.511 -8.70927
LeftUpLeg  -4.22719 8.09582 3.26248
LeftLeg  70.5495 -0.182611 0.57947
LeftFoot  3.19102 0.736674 -6.56701
LeftToes  8.61288e-010 -5.99147e-011 2.1039e-011
